<svg width="188" height="34" viewBox="0 0 188 34" fill="none" xmlns="http://www.w3.org/2000/svg">
<g clip-path="url(#clip0_846_91)">
<path d="M12.2932 0V4.6779C9.03281 4.6779 5.906 5.97617 3.60058 8.28711C1.29517 10.598 0 13.7323 0 17.0005C0 20.2687 1.29517 23.403 3.60058 25.7139C5.906 28.0248 9.03281 29.3231 12.2932 29.3231V34C16.7685 33.9655 21.0488 32.1592 24.2012 28.9749C27.3536 25.7905 29.1226 21.4862 29.1226 17C29.1226 12.5138 27.3536 8.20951 24.2012 5.02514C21.0488 1.84077 16.7685 0.0344985 12.2932 0ZM12.2932 28.3871V23.7102C10.5179 23.7102 8.81532 23.0033 7.56001 21.745C6.3047 20.4867 5.59947 18.78 5.59947 17.0005C5.59947 15.221 6.3047 13.5143 7.56001 12.256C8.81532 10.9977 10.5179 10.2908 12.2932 10.2908V5.61288C15.306 5.61288 18.1954 6.81259 20.3258 8.94809C22.4562 11.0836 23.6531 13.9799 23.6531 17C23.6531 20.0201 22.4562 22.9164 20.3258 25.0519C18.1954 27.1874 15.306 28.3871 12.2932 28.3871Z" fill="#888888"/>
<path d="M52.3711 12.1723H56.4832V24.701H59.8461V12.1723H63.9833V9.3623H52.3711V12.1723Z" fill="#888888"/>
<path d="M75.1844 18.3632C77.1151 17.4041 78.0538 16.1675 78.0538 14.2644C78.0538 10.7899 74.9286 9.36328 72.0251 9.36328H66.5089L66.4688 24.7009H69.8196L69.8326 19.259H71.977L74.8604 24.6879L78.6205 24.6989L75.0369 18.4396L75.1844 18.3632ZM71.9609 16.4329H69.8357L69.8477 12.1793H71.9609C72.6168 12.1793 74.6809 12.3713 74.6809 14.2382C74.6809 15.9855 73.2828 16.4329 71.9609 16.4329Z" fill="#888888"/>
<path d="M79.895 24.7009H83.4615L84.4564 22.4158H90.6747L91.6696 24.7009H95.2151L87.6037 8.75L79.895 24.7009ZM85.6399 19.6963L87.5646 15.2727L89.4892 19.6963H85.6399Z" fill="#888888"/>
<path d="M102.179 9.36213H97.2241V24.7008H102.179C103.341 24.7529 104.5 24.5454 105.572 24.0933C106.644 23.6412 107.602 22.9559 108.378 22.0869C109.585 20.6705 110.259 18.8754 110.284 17.0129C110.273 15.9711 110.053 14.9423 109.636 13.988C109.219 13.0337 108.614 12.1738 107.857 11.4596C107.1 10.7455 106.207 10.192 105.232 9.83225C104.257 9.47251 103.219 9.31397 102.181 9.36616M102.08 21.8044H100.604V12.1731H102.078C102.714 12.1554 103.346 12.2667 103.938 12.5004C104.529 12.734 105.067 13.0852 105.52 13.5327C105.972 13.9802 106.33 14.5148 106.571 15.1045C106.812 15.6941 106.932 16.3265 106.923 16.9636C106.928 17.6019 106.806 18.2348 106.565 18.8254C106.323 19.4159 105.966 19.9521 105.515 20.4025C105.064 20.8529 104.527 21.2085 103.937 21.4483C103.347 21.6882 102.715 21.8075 102.078 21.7993" fill="#888888"/>
<path d="M46.941 15.8306L44.1568 14.7509C43.3906 14.4121 42.8249 13.9315 42.8249 13.275C42.8249 12.3219 43.873 11.8142 45.1046 11.8142C46.8859 11.7987 48.6121 12.4325 49.9619 13.5977V10.5374C48.5356 9.54689 46.8397 9.02038 45.1046 9.02941C41.4589 9.02941 39.5041 10.7807 39.5041 13.269C39.5041 15.7964 41.171 16.84 43.0536 17.6664L45.9822 18.8517C46.8648 19.2327 47.5528 19.6359 47.5528 20.5256C47.5528 21.5842 46.4937 22.1844 44.9602 22.1844C42.8275 22.0665 40.7887 21.2663 39.1431 19.9013V23.0621C40.8528 24.2604 42.8748 24.9313 44.9602 24.9924C48.3983 24.9924 50.9057 23.5316 50.9057 20.5256C50.9057 18.0122 49.5437 16.8641 46.942 15.8266" fill="#888888"/>
<path d="M118.324 17.9797L114.622 9.33972H110.788L118.257 25.2906L125.798 9.33972H122.187L118.324 17.9797Z" fill="#888888"/>
<path d="M131.562 9.33972H128.204V24.6774H131.562V9.33972Z" fill="#888888"/>
<path d="M152.993 9.33972H149.635V24.6774H152.993V9.33972Z" fill="#888888"/>
<path d="M184.686 9.34014V17.8032L174.922 8.75V24.6778H178.232V16.1645L187.996 25.2629V9.34014H184.686Z" fill="#888888"/>
<path d="M164.002 24.9898C165.567 24.9424 167.082 24.434 168.36 23.5282C169.638 22.6224 170.622 21.3593 171.188 19.8966C171.754 18.4339 171.877 16.8365 171.543 15.3038C171.209 13.7711 170.432 12.3711 169.308 11.2786C168.185 10.1861 166.766 9.44945 165.227 9.16076C163.689 8.87207 162.1 9.04408 160.658 9.65532C159.217 10.2666 157.987 11.2899 157.122 12.5976C156.257 13.9053 155.796 15.4394 155.796 17.0083C155.788 18.0794 155.997 19.1411 156.41 20.1291C156.822 21.1172 157.43 22.0112 158.197 22.7571C158.964 23.503 159.874 24.0855 160.872 24.4692C161.869 24.8529 162.934 25.03 164.002 24.9898ZM164.002 12.0821C164.632 12.0826 165.256 12.213 165.833 12.4652C166.411 12.7173 166.931 13.0858 167.36 13.5478C167.79 14.0097 168.12 14.5553 168.331 15.1506C168.541 15.7459 168.627 16.3782 168.584 17.0083C168.628 17.6387 168.543 18.2716 168.333 18.8675C168.123 19.4635 167.793 20.0097 167.363 20.4721C166.933 20.9346 166.413 21.3034 165.835 21.5555C165.257 21.8077 164.633 21.9379 164.003 21.9379C163.372 21.9379 162.749 21.8077 162.17 21.5555C161.592 21.3034 161.072 20.9346 160.642 20.4721C160.213 20.0097 159.882 19.4635 159.672 18.8675C159.462 18.2716 159.377 17.6387 159.422 17.0083C159.378 16.3782 159.464 15.7459 159.675 15.1506C159.885 14.5553 160.216 14.0097 160.645 13.5478C161.075 13.0858 161.595 12.7173 162.172 12.4652C162.75 12.213 163.373 12.0826 164.003 12.0821" fill="#888888"/>
<path d="M142.762 15.8238L139.978 14.744C139.211 14.4052 138.646 13.9247 138.646 13.2682C138.646 12.3151 139.694 11.8074 140.925 11.8074C142.707 11.7919 144.433 12.4257 145.783 13.5909V10.5306C144.356 9.54005 142.661 9.01354 140.925 9.02258C137.28 9.02258 135.325 10.7739 135.325 13.2621C135.325 15.7896 136.992 16.8332 138.874 17.6596L141.803 18.8449C142.686 19.2259 143.374 19.629 143.374 20.5188C143.374 21.5774 142.314 22.1776 140.781 22.1776C138.648 22.0597 136.609 21.2595 134.964 19.8945V23.0553C136.674 24.2535 138.696 24.9245 140.781 24.9856C144.219 24.9856 146.726 23.5248 146.726 20.5188C146.726 18.0054 145.364 16.8573 142.763 15.8198" fill="#888888"/>
<path d="M12.2932 0V4.6779C9.03281 4.6779 5.906 5.97617 3.60058 8.28711C1.29517 10.598 0 13.7323 0 17.0005C0 20.2687 1.29517 23.403 3.60058 25.7139C5.906 28.0248 9.03281 29.3231 12.2932 29.3231V34C16.7685 33.9655 21.0488 32.1592 24.2012 28.9749C27.3536 25.7905 29.1226 21.4862 29.1226 17C29.1226 12.5138 27.3536 8.20951 24.2012 5.02514C21.0488 1.84077 16.7685 0.0344985 12.2932 0ZM12.2932 28.3871V23.7102C10.5179 23.7102 8.81532 23.0033 7.56001 21.745C6.3047 20.4867 5.59947 18.78 5.59947 17.0005C5.59947 15.221 6.3047 13.5143 7.56001 12.256C8.81532 10.9977 10.5179 10.2908 12.2932 10.2908V5.61288C15.306 5.61288 18.1954 6.81259 20.3258 8.94809C22.4562 11.0836 23.6531 13.9799 23.6531 17C23.6531 20.0201 22.4562 22.9164 20.3258 25.0519C18.1954 27.1874 15.306 28.3871 12.2932 28.3871Z" fill="#888888"/>
<path d="M52.3711 12.1723H56.4832V24.701H59.8461V12.1723H63.9833V9.3623H52.3711V12.1723Z" fill="#888888"/>
<path d="M75.1844 18.3632C77.1151 17.4041 78.0538 16.1675 78.0538 14.2644C78.0538 10.7899 74.9286 9.36328 72.0251 9.36328H66.5089L66.4688 24.7009H69.8196L69.8326 19.259H71.977L74.8604 24.6879L78.6205 24.6989L75.0369 18.4396L75.1844 18.3632ZM71.9609 16.4329H69.8357L69.8477 12.1793H71.9609C72.6168 12.1793 74.6809 12.3713 74.6809 14.2382C74.6809 15.9855 73.2828 16.4329 71.9609 16.4329Z" fill="#888888"/>
<path d="M79.895 24.7009H83.4615L84.4564 22.4158H90.6747L91.6696 24.7009H95.2151L87.6037 8.75L79.895 24.7009ZM85.6399 19.6963L87.5646 15.2727L89.4892 19.6963H85.6399Z" fill="#888888"/>
<path d="M102.179 9.36213H97.2241V24.7008H102.179C103.341 24.7529 104.5 24.5454 105.572 24.0933C106.644 23.6412 107.602 22.9559 108.378 22.0869C109.585 20.6705 110.259 18.8754 110.284 17.0129C110.273 15.9711 110.053 14.9423 109.636 13.988C109.219 13.0337 108.614 12.1738 107.857 11.4596C107.1 10.7455 106.207 10.192 105.232 9.83225C104.257 9.47251 103.219 9.31397 102.181 9.36616M102.08 21.8044H100.604V12.1731H102.078C102.714 12.1554 103.346 12.2667 103.938 12.5004C104.529 12.734 105.067 13.0852 105.52 13.5327C105.972 13.9802 106.33 14.5148 106.571 15.1045C106.812 15.6941 106.932 16.3265 106.923 16.9636C106.928 17.6019 106.806 18.2348 106.565 18.8254C106.323 19.4159 105.966 19.9521 105.515 20.4025C105.064 20.8529 104.527 21.2085 103.937 21.4483C103.347 21.6882 102.715 21.8075 102.078 21.7993" fill="#888888"/>
<path d="M46.941 15.8306L44.1568 14.7509C43.3906 14.4121 42.8249 13.9315 42.8249 13.275C42.8249 12.3219 43.873 11.8142 45.1046 11.8142C46.8859 11.7987 48.6121 12.4325 49.9619 13.5977V10.5374C48.5356 9.54689 46.8397 9.02038 45.1046 9.02941C41.4589 9.02941 39.5041 10.7807 39.5041 13.269C39.5041 15.7964 41.171 16.84 43.0536 17.6664L45.9822 18.8517C46.8648 19.2327 47.5528 19.6359 47.5528 20.5256C47.5528 21.5842 46.4937 22.1844 44.9602 22.1844C42.8275 22.0665 40.7887 21.2663 39.1431 19.9013V23.0621C40.8528 24.2604 42.8748 24.9313 44.9602 24.9924C48.3983 24.9924 50.9057 23.5316 50.9057 20.5256C50.9057 18.0122 49.5437 16.8641 46.942 15.8266" fill="#888888"/>
<path d="M118.324 17.9797L114.622 9.33972H110.788L118.257 25.2906L125.798 9.33972H122.187L118.324 17.9797Z" fill="#888888"/>
<path d="M131.562 9.33972H128.204V24.6774H131.562V9.33972Z" fill="#888888"/>
<path d="M152.993 9.33972H149.635V24.6774H152.993V9.33972Z" fill="#888888"/>
<path d="M184.686 9.34014V17.8032L174.922 8.75V24.6778H178.232V16.1645L187.996 25.2629V9.34014H184.686Z" fill="#888888"/>
<path d="M164.002 24.9898C165.567 24.9424 167.082 24.434 168.36 23.5282C169.638 22.6224 170.622 21.3593 171.188 19.8966C171.754 18.4339 171.877 16.8365 171.543 15.3038C171.209 13.7711 170.432 12.3711 169.308 11.2786C168.185 10.1861 166.766 9.44945 165.227 9.16076C163.689 8.87207 162.1 9.04408 160.658 9.65532C159.217 10.2666 157.987 11.2899 157.122 12.5976C156.257 13.9053 155.796 15.4394 155.796 17.0083C155.788 18.0794 155.997 19.1411 156.41 20.1291C156.822 21.1172 157.43 22.0112 158.197 22.7571C158.964 23.503 159.874 24.0855 160.872 24.4692C161.869 24.8529 162.934 25.03 164.002 24.9898ZM164.002 12.0821C164.632 12.0826 165.256 12.213 165.833 12.4652C166.411 12.7173 166.931 13.0858 167.36 13.5478C167.79 14.0097 168.12 14.5553 168.331 15.1506C168.541 15.7459 168.627 16.3782 168.584 17.0083C168.628 17.6387 168.543 18.2716 168.333 18.8675C168.123 19.4635 167.793 20.0097 167.363 20.4721C166.933 20.9346 166.413 21.3034 165.835 21.5555C165.257 21.8077 164.633 21.9379 164.003 21.9379C163.372 21.9379 162.749 21.8077 162.17 21.5555C161.592 21.3034 161.072 20.9346 160.642 20.4721C160.213 20.0097 159.882 19.4635 159.672 18.8675C159.462 18.2716 159.377 17.6387 159.422 17.0083C159.378 16.3782 159.464 15.7459 159.675 15.1506C159.885 14.5553 160.216 14.0097 160.645 13.5478C161.075 13.0858 161.595 12.7173 162.172 12.4652C162.75 12.213 163.373 12.0826 164.003 12.0821" fill="#888888"/>
<path d="M142.762 15.8238L139.978 14.744C139.211 14.4052 138.646 13.9247 138.646 13.2682C138.646 12.3151 139.694 11.8074 140.925 11.8074C142.707 11.7919 144.433 12.4257 145.783 13.5909V10.5306C144.356 9.54005 142.661 9.01354 140.925 9.02258C137.28 9.02258 135.325 10.7739 135.325 13.2621C135.325 15.7896 136.992 16.8332 138.874 17.6596L141.803 18.8449C142.686 19.2259 143.374 19.629 143.374 20.5188C143.374 21.5774 142.314 22.1776 140.781 22.1776C138.648 22.0597 136.609 21.2595 134.964 19.8945V23.0553C136.674 24.2535 138.696 24.9245 140.781 24.9856C144.219 24.9856 146.726 23.5248 146.726 20.5188C146.726 18.0054 145.364 16.8573 142.763 15.8198" fill="#888888"/>
</g>
<defs>
<clipPath id="clip0_846_91">
<rect width="188" height="34" fill="white"/>
</clipPath>
</defs>
</svg>
