<svg width="17" height="18" viewBox="0 0 17 18" fill="none" xmlns="http://www.w3.org/2000/svg">
<path d="M15.5105 0.564453H1.39449C0.71885 0.564453 0.170898 1.09933 0.170898 1.75855V16.0398C0.170898 16.6987 0.71885 17.2336 1.39449 17.2336H15.5105C16.1872 17.2336 16.7351 16.6983 16.7351 16.0398V1.75855C16.7351 1.099 16.1868 0.564453 15.5105 0.564453ZM5.19161 14.5186H2.6898V6.99174H5.19161V14.5186ZM3.94087 5.96353H3.92411C3.08493 5.96353 2.542 5.38542 2.542 4.6632C2.542 3.92489 3.10168 3.36286 3.95729 3.36286C4.81323 3.36286 5.33974 3.92489 5.35649 4.6632C5.35649 5.38542 4.8129 5.96353 3.94087 5.96353ZM14.2132 14.5186H11.7114V10.4909C11.7114 9.47947 11.3494 8.78908 10.4442 8.78908C9.75317 8.78908 9.34162 9.25459 9.16031 9.70435C9.09429 9.86488 9.07821 10.0894 9.07821 10.3146V14.5183H6.5764C6.5764 14.5183 6.60924 7.69687 6.5764 6.9914H9.07821V8.05681C9.41066 7.54405 10.0052 6.81378 11.3334 6.81378C12.9792 6.81378 14.2135 7.88991 14.2135 10.202L14.2132 14.5186Z" fill="#0177B5"/>
</svg>
