<svg width="21" height="15" viewBox="0 0 21 15" fill="none" xmlns="http://www.w3.org/2000/svg">
<path d="M19.9468 3.58366C19.9468 3.41699 19.6968 2.08366 19.1134 1.50033C18.3634 0.666992 17.5301 0.583659 17.1134 0.583659H17.0301C14.4468 0.416992 10.6134 0.416992 10.5301 0.416992C10.5301 0.416992 6.61344 0.416992 4.03011 0.583659H3.94678C3.53011 0.583659 2.69678 0.666992 1.94678 1.50033C1.36344 2.16699 1.11344 3.50033 1.11344 3.66699C1.11344 3.75033 0.946777 5.25033 0.946777 6.83366V8.25033C0.946777 9.83366 1.11344 11.3337 1.11344 11.417C1.11344 11.5837 1.36344 12.917 1.94678 13.5003C2.61344 14.2503 3.44678 14.3337 3.94678 14.417C4.03011 14.417 4.11344 14.417 4.19678 14.417C5.69678 14.5837 10.2801 14.5837 10.4468 14.5837C10.4468 14.5837 14.3634 14.5837 16.9468 14.417H17.0301C17.4468 14.3337 18.2801 14.2503 19.0301 13.5003C19.6134 12.8337 19.8634 11.5003 19.8634 11.3337C19.8634 11.2503 20.0301 9.75033 20.0301 8.16699V6.75033C20.1134 5.25033 19.9468 3.66699 19.9468 3.58366ZM13.7801 7.66699L8.78011 10.3337C8.69678 10.3337 8.69678 10.417 8.61344 10.417C8.53011 10.417 8.44678 10.417 8.44678 10.3337C8.36344 10.2503 8.28011 10.167 8.28011 10.0003V4.58366C8.28011 4.41699 8.36344 4.33366 8.44678 4.25033C8.53011 4.16699 8.69678 4.16699 8.86344 4.25033L13.8634 6.91699C14.0301 7.00033 14.1134 7.08366 14.1134 7.25033C14.1134 7.41699 13.9468 7.58366 13.7801 7.66699Z" fill="#F70000"/>
</svg>
